<svg version="1.0" xmlns="http://www.w3.org/2000/svg"
 width="840.000000pt" height="407.000000pt" viewBox="0 0 840.000000 407.000000"
 preserveAspectRatio="xMidYMid meet">
<g transform="translate(0.000000,407.000000) scale(0.100000,-0.100000)" stroke="none">
<path d="M4105 3631 c-57 -27 -2238 -2211 -2260 -2263 -22 -54 -19 -140 6
-191 32 -64 690 -720 749 -746 60 -27 138 -27 193 0 28 14 265 243 725 702
l682 682 683 -682 c525 -525 692 -687 727 -702 58 -26 132 -26 190 0 64 29
721 685 749 749 25 54 27 136 6 188 -22 52 -2203 2236 -2260 2263 -24 11 -62
19 -95 19 -33 0 -71 -8 -95 -19z"/>
</g>
</svg>
