<svg version="1.0" xmlns="http://www.w3.org/2000/svg"
 width="512.000000pt" height="512.000000pt" viewBox="0 0 512.000000 512.000000"
 preserveAspectRatio="xMidYMid meet">
<g transform="translate(0.000000,512.000000) scale(0.100000,-0.100000)"
fill="#000000" stroke="none">
<path d="M930 4682 c-19 -9 -45 -32 -57 -51 l-23 -34 0 -1853 c0 -1392 3
-1859 12 -1879 11 -24 416 -404 485 -454 38 -29 122 -33 168 -8 17 8 129 105
249 214 120 109 222 198 227 198 4 0 112 -94 239 -210 128 -116 244 -216 258
-224 35 -19 109 -19 144 0 15 8 131 108 259 224 127 116 235 210 239 210 4 0
112 -94 238 -209 127 -115 244 -217 259 -227 44 -29 112 -25 159 10 80 59 450
403 466 434 17 30 18 126 18 1623 l0 1591 -22 32 c-31 42 -673 610 -704 622
-16 5 -520 9 -1302 9 -1196 0 -1279 -1 -1312 -18z m2510 -456 l0 -233 26 -27
27 -26 268 0 269 0 0 -1522 -1 -1523 -140 -132 -141 -131 -251 205 c-249 204
-292 233 -342 233 -50 0 -94 -30 -342 -233 l-252 -206 -233 191 c-128 105
-253 203 -277 219 -51 33 -105 38 -151 14 -16 -8 -133 -107 -261 -219 l-232
-204 -159 151 -158 152 0 1762 0 1763 1175 0 1175 0 0 -234z"/>
<path d="M2107 3800 c-328 -32 -597 -150 -666 -293 -21 -43 -21 -55 -21 -763
l0 -720 30 -47 c76 -120 307 -196 678 -222 l93 -7 -3 109 -3 108 -108 7 c-239
14 -420 69 -457 137 -6 12 -10 94 -10 200 l0 181 43 -33 c125 -95 369 -138
730 -129 l77 2 0 124 0 125 -102 -6 c-119 -6 -327 10 -431 33 -140 32 -249 94
-292 169 -24 40 -25 50 -25 204 l0 162 33 -25 c88 -67 258 -104 517 -113 346
-11 629 37 780 132 62 39 138 118 160 168 22 47 25 122 9 179 -6 22 -33 63
-65 97 -91 99 -247 166 -474 205 -114 19 -372 28 -493 16z m393 -191 c231 -28
379 -98 396 -185 27 -147 -310 -252 -714 -223 -286 20 -452 92 -452 195 0 85
157 181 348 214 70 12 326 11 422 -1z"/>
<path d="M3172 3213 c-14 -14 -658 -1040 -764 -1219 -18 -31 -18 -32 33 -255
29 -123 56 -228 60 -233 4 -5 106 14 238 44 l230 54 383 615 c211 338 386 625
389 637 4 12 2 32 -5 43 -13 25 -500 331 -526 331 -10 0 -27 -8 -38 -17z
m-477 -1405 c74 -46 131 -86 127 -89 -4 -4 -55 -18 -114 -31 l-107 -25 -20 89
c-12 49 -24 100 -27 114 -3 13 -3 24 1 24 3 0 67 -37 140 -82z"/>
</g>
</svg>
