<svg version="1.0" xmlns="http://www.w3.org/2000/svg"
 width="225.000000pt" height="225.000000pt" viewBox="0 0 225.000000 225.000000"
 preserveAspectRatio="xMidYMid meet">
<g transform="translate(0.000000,225.000000) scale(0.100000,-0.100000)"
fill="#000000" stroke="none">
<path d="M193 2160 c-22 -9 -23 -15 -23 -105 l0 -95 -69 0 c-70 0 -101 -14
-101 -44 0 -25 26 -35 95 -38 l70 -3 3 -89 c2 -50 8 -96 14 -103 15 -18 538
-19 556 -1 8 8 12 46 12 105 l0 93 738 0 c561 0 741 3 750 12 16 16 15 33 -4
52 -14 14 -96 16 -750 16 l-734 0 0 88 c0 48 -5 94 -10 102 -8 13 -50 15 -267
17 -142 1 -268 -2 -280 -7z m477 -245 l0 -165 -210 0 -210 0 0 165 0 165 210
0 210 0 0 -165z"/>
<path d="M840 1351 c-5 -11 -10 -56 -10 -100 l0 -80 -405 -3 c-421 -3 -425 -3
-425 -43 0 -40 4 -40 425 -43 l405 -3 0 -80 c0 -129 -24 -119 295 -119 319 0
295 -10 295 119 l0 80 405 3 c421 3 425 3 425 43 0 40 -4 40 -425 43 l-405 3
0 80 c0 129 24 119 -295 119 -261 0 -275 -1 -285 -19z m490 -226 l0 -165 -205
0 -205 0 0 165 0 165 205 0 205 0 0 -165z"/>
<path d="M1512 568 c-8 -8 -12 -45 -12 -105 l0 -93 -738 0 c-561 0 -741 -3
-750 -12 -16 -16 -15 -33 4 -52 14 -14 96 -16 750 -16 l734 0 0 -87 c0 -49 5
-95 10 -103 8 -13 51 -15 263 -18 156 -2 264 1 280 7 27 10 27 12 27 106 l0
95 69 0 c70 0 101 14 101 44 0 25 -26 35 -95 38 l-70 3 -5 100 -5 100 -275 3
c-206 2 -279 -1 -288 -10z m488 -233 l0 -165 -210 0 -210 0 0 165 0 165 210 0
210 0 0 -165z"/>
</g>
</svg>
