<svg version="1.0" xmlns="http://www.w3.org/2000/svg"
 width="500.000000pt" height="500.000000pt" viewBox="0 0 500.000000 500.000000"
 preserveAspectRatio="xMidYMid meet">
<g transform="translate(0.000000,500.000000) scale(0.100000,-0.100000)" stroke="none">
<path d="M70 2498 l0 -1248 220 0 220 0 0 510 0 510 198 0 197 0 0 210 0 210
-197 0 -198 0 0 525 0 524 -220 3 -220 3 0 -1247z"/>
<path d="M1390 3615 c0 -69 2 -125 5 -125 2 0 44 26 92 57 78 50 218 122 247
127 6 1 20 7 31 13 20 11 27 13 45 13 6 0 10 9 10 20 0 19 -7 20 -215 20
l-215 0 0 -125z"/>
<path d="M2030 3734 c-14 -2 -56 -9 -95 -16 -38 -6 -74 -12 -80 -12 -6 -1 -11
-84 -13 -224 -2 -178 0 -223 10 -219 7 3 51 18 98 34 75 24 101 27 215 28 92
0 153 -5 209 -19 89 -20 254 -100 303 -146 18 -17 34 -30 37 -30 2 0 25 31 50
68 25 38 86 111 135 162 80 84 88 95 73 107 -117 93 -316 202 -400 218 -9 2
-17 4 -17 5 0 3 -27 8 -148 29 -109 19 -295 26 -377 15z"/>
<path d="M3660 3734 c-14 -3 -61 -12 -105 -21 -44 -8 -89 -17 -100 -19 -11 -1
-20 -3 -20 -4 0 -1 -9 -3 -21 -5 -28 -6 -187 -74 -194 -84 -3 -4 -23 -18 -45
-31 -22 -13 -70 -45 -107 -72 l-66 -48 82 -83 c45 -45 104 -113 131 -152 27
-38 52 -74 56 -79 4 -5 27 7 51 27 118 97 316 167 470 167 214 0 418 -85 584
-242 l92 -88 247 0 c135 0 245 3 243 8 -88 192 -214 354 -360 463 -139 103
-315 199 -390 213 -13 3 -23 5 -23 6 0 1 -11 3 -25 5 -14 2 -56 11 -95 20 -68
16 -350 29 -405 19z"/>
<path d="M1778 3218 c-82 -44 -187 -136 -247 -215 -62 -81 -129 -213 -138
-268 -3 -22 -10 -43 -15 -46 -5 -3 -15 -51 -21 -107 -12 -107 1 -284 22 -305
6 -6 11 -22 11 -37 0 -38 60 -167 115 -249 62 -93 173 -195 264 -244 l71 -38
0 770 c0 424 -1 771 -2 771 -2 0 -29 -14 -60 -32z"/>
<path d="M3210 3040 c-130 -156 -210 -366 -210 -555 0 -142 47 -306 126 -436
50 -82 138 -189 155 -189 9 0 42 66 99 195 40 89 70 276 70 431 0 189 -37 360
-109 507 -57 114 -71 119 -131 47z"/>
<path d="M4360 1867 c-91 -87 -208 -158 -327 -200 -81 -29 -99 -31 -218 -31
-106 -1 -145 3 -210 22 -91 26 -187 75 -262 131 l-52 40 -57 -86 c-32 -47 -92
-120 -134 -162 l-75 -78 43 -32 c122 -92 214 -141 345 -185 253 -84 537 -87
782 -8 44 14 82 26 85 27 48 10 205 101 301 173 136 101 250 234 320 374 21
43 39 80 39 83 0 3 -114 5 -252 5 l-253 -1 -75 -72z"/>
<path d="M2669 1797 c-225 -170 -504 -212 -776 -117 l-53 18 0 -218 0 -218 48
-11 c214 -49 472 -39 672 25 47 15 90 29 97 30 52 10 332 184 333 207 0 4 -32
40 -71 79 -39 39 -98 107 -131 152 -33 45 -63 82 -67 84 -4 1 -27 -13 -52 -31z"/>
<path d="M1390 1360 l0 -110 223 1 222 0 -87 29 c-103 34 -169 66 -263 129
-38 25 -76 50 -82 54 -10 6 -13 -17 -13 -103z"/>
</g>
</svg>
