<svg version="1.0" xmlns="http://www.w3.org/2000/svg"
 width="225.000000pt" height="225.000000pt" viewBox="0 0 225.000000 225.000000"
 preserveAspectRatio="xMidYMid meet">
<g transform="translate(0.000000,225.000000) scale(0.100000,-0.100000)"
stroke="none">
<path d="M586 2236 c-97 -36 -166 -134 -166 -235 0 -59 26 -130 60 -166 18
-20 19 -48 22 -655 3 -635 3 -635 27 -705 39 -119 80 -184 171 -276 70 -71
101 -94 170 -127 47 -22 110 -46 140 -53 78 -19 250 -16 329 5 232 63 412 247
471 483 19 72 20 107 18 409 l-3 331 -250 -234 c-137 -129 -251 -238 -253
-243 -2 -5 38 -30 89 -55 l92 -47 -6 -48 c-12 -104 -93 -211 -196 -258 -81
-38 -193 -37 -273 1 -82 40 -152 120 -178 204 -19 62 -20 91 -20 658 l0 592
21 19 c57 50 79 177 45 259 -21 50 -69 101 -120 127 -51 26 -139 33 -190 14z
m143 -182 c58 -73 -26 -169 -108 -124 -31 16 -46 65 -31 100 16 38 35 49 82
50 28 0 41 -6 57 -26z"/>
</g>
</svg>
