<svg version="1.0" xmlns="http://www.w3.org/2000/svg"
     width="225.000000pt" height="225.000000pt" viewBox="0 0 225.000000 225.000000"
     preserveAspectRatio="xMidYMid meet">
  <g transform="translate(0.000000,225.000000) scale(0.100000,-0.100000)"
     stroke="none">
    <path d="M1040 2132 l0 -88 -77 -13 c-189 -32 -355 -121 -501 -268 -50 -51
-92 -97 -92 -102 0 -8 191 -145 194 -139 1 2 18 24 39 50 71 90 216 181 339
214 97 26 97 26 100 -69 l3 -83 252 146 c138 80 249 148 245 152 -9 9 -491
288 -497 288 -3 0 -5 -40 -5 -88z"/>
    <path d="M1592 1790 c-34 -50 -62 -93 -62 -95 0 -3 35 -40 78 -83 100 -100
169 -230 197 -369 l7 -33 -86 0 c-47 0 -86 -2 -86 -4 0 -2 66 -117 146 -256
l147 -251 57 98 c31 54 98 168 147 253 l91 155 -93 3 -92 3 -7 55 c-10 84 -61
230 -113 324 -35 63 -75 112 -149 188 -56 56 -106 102 -111 102 -5 0 -37 -41
-71 -90z"/>
    <path d="M167 1290 l-145 -250 89 0 c63 0 91 -4 93 -12 2 -7 10 -50 19 -95 16
-88 64 -207 119 -301 31 -54 226 -262 245 -262 10 0 133 175 133 189 0 5 -20
25 -45 45 -110 90 -191 235 -229 409 l-6 27 85 0 c47 0 85 3 85 6 0 11 -283
494 -290 494 -4 0 -73 -112 -153 -250z"/>
    <path d="M1647 680 c-85 -110 -235 -196 -409 -234 l-28 -6 0 85 c0 47 -3 85
-6 85 -8 0 -477 -271 -491 -284 -8 -8 56 -50 243 -157 l254 -147 0 94 0 94 31
0 c96 0 308 82 423 164 59 42 216 199 216 215 0 6 -172 131 -190 138 -3 1 -22
-20 -43 -47z"/>
  </g>
</svg>
