<svg version="1.0" xmlns="http://www.w3.org/2000/svg"
 width="225.000000pt" height="225.000000pt" viewBox="0 0 225.000000 225.000000"
 preserveAspectRatio="xMidYMid meet">
<g transform="translate(0.000000,225.000000) scale(0.100000,-0.100000)" stroke="none">
<path d="M930 2021 c-189 -41 -361 -139 -376 -216 -7 -38 14 -85 48 -109 38
-27 83 -19 166 28 133 77 185 90 352 91 132 0 152 -3 226 -28 257 -86 453
-332 471 -589 l6 -78 -87 0 c-47 0 -86 -2 -86 -5 0 -17 283 -426 290 -419 4 5
69 101 144 214 l136 205 -87 5 -88 5 -7 77 c-32 353 -265 660 -589 779 -167
61 -351 75 -519 40z"/>
<path d="M172 1348 l-142 -213 88 -5 87 -5 7 -77 c19 -206 103 -396 242 -545
115 -124 252 -207 423 -260 80 -24 103 -26 248 -27 134 0 173 4 239 22 105 29
231 91 286 140 41 36 45 44 45 87 0 40 -5 51 -33 76 -47 42 -89 39 -173 -12
-108 -65 -195 -91 -328 -97 -119 -5 -183 4 -281 39 -133 49 -275 167 -353 295
-48 81 -89 204 -95 292 l-5 72 87 0 c47 0 86 2 86 5 0 7 -279 425 -284 425 -1
0 -67 -96 -144 -212z"/>
</g>
</svg>
