<svg version="1.0" xmlns="http://www.w3.org/2000/svg"
 width="225.000000pt" height="225.000000pt" viewBox="0 0 225.000000 225.000000"
 preserveAspectRatio="xMidYMid meet">
<g transform="translate(0.000000,225.000000) scale(0.100000,-0.100000)" stroke="none">
<path d="M982 2239 c-162 -21 -338 -86 -474 -174 -104 -69 -272 -241 -336
-344 -271 -442 -215 -993 138 -1365 329 -347 827 -450 1264 -261 177 77 380
247 484 405 179 271 233 594 152 910 -82 320 -325 607 -629 741 -188 83 -400
114 -599 88z m380 -197 c294 -79 545 -305 647 -584 46 -124 55 -179 56 -333 0
-126 -4 -163 -23 -234 -97 -354 -377 -620 -732 -693 -121 -25 -305 -21 -423
11 -174 46 -330 142 -460 281 -118 128 -193 274 -229 448 -28 136 -21 320 16
445 50 168 132 302 257 423 140 134 284 209 475 249 99 21 315 14 416 -13z"/>
<path d="M941 1840 c-266 -71 -466 -275 -532 -539 -30 -120 -24 -292 15 -406
76 -224 250 -398 473 -473 70 -24 93 -26 228 -27 139 0 156 2 230 28 225 79
396 250 471 472 32 96 43 254 25 361 -46 261 -238 482 -496 570 -110 38 -302
44 -414 14z m339 -176 c180 -50 332 -204 386 -389 23 -81 23 -221 0 -300 -56
-188 -204 -336 -391 -391 -81 -23 -221 -23 -300 0 -186 55 -335 203 -388 383
-68 232 24 488 223 622 141 94 307 120 470 75z"/>
</g>
</svg>
