<svg version="1.0" xmlns="http://www.w3.org/2000/svg"
     width="2000.000000pt" height="1885.000000pt" viewBox="0 0 2000.000000 1885.000000"
     preserveAspectRatio="xMidYMid meet">
  <g transform="translate(0.000000,1885.000000) scale(0.100000,-0.100000)" stroke="none">
    <path d="M9917 18153 c-3 -6 -2098 -6455 -2160 -6650 l-10 -33 -3529 0 c-1940
0 -3528 -3 -3528 -7 1 -5 1285 -941 2855 -2082 1570 -1141 2853 -2077 2851
-2080 -11 -18 -2167 -6674 -2164 -6682 2 -5 1279 919 2838 2052 1559 1134
2840 2064 2847 2066 9 4 5473 -3957 5656 -4100 21 -16 40 -27 43 -24 3 2 -483
1509 -1080 3348 -842 2595 -1082 3347 -1073 3356 7 6 1277 930 2822 2053 1546
1123 2826 2054 2845 2069 l35 26 -3534 5 -3533 5 -1083 3339 c-596 1836 -1086
3340 -1088 3343 -3 2 -7 1 -10 -4z"/>
  </g>
</svg>
